<svg width="24" height="24" viewBox="0 0 24 24" fill="none" xmlns="http://www.w3.org/2000/svg">
<path d="M12 0C5.38372 0 0 5.38256 0 12C0 18.6174 5.38372 24 12 24C18.6163 24 24 18.6174 24 12C24 5.38256 18.6163 0 12 0ZM12 23.2007C5.82451 23.2007 0.800748 18.1759 0.800748 12C0.800748 5.82412 5.82451 0.799302 12 0.799302C18.1755 0.799302 23.1993 5.82412 23.1993 12C23.1993 18.1759 18.1755 23.2007 12 23.2007Z" fill="black"/>
<path d="M14.6193 5.26431H12.6226C10.0797 5.23887 9.75491 6.81277 9.75491 8.51615V9.75477H8.63237C8.58163 9.74799 8.53001 9.753 8.48153 9.76941C8.43304 9.78582 8.38899 9.81319 8.35279 9.84938C8.3166 9.88558 8.28923 9.92964 8.27283 9.97813C8.25642 10.0266 8.25141 10.0782 8.25819 10.129V12.3742C8.25141 12.4249 8.25642 12.4766 8.27283 12.5251C8.28923 12.5735 8.3166 12.6176 8.35279 12.6538C8.38899 12.69 8.43304 12.7174 8.48153 12.7338C8.53001 12.7502 8.58163 12.7552 8.63237 12.7484H9.75491V18.3615C9.74868 18.4123 9.75414 18.4639 9.77089 18.5123C9.78763 18.5607 9.81522 18.6046 9.85154 18.6407C9.88786 18.6768 9.93195 18.7042 9.98044 18.7206C10.0289 18.7371 10.0805 18.7422 10.1313 18.7357H12.4176C12.6384 18.7611 12.8172 18.5823 12.7469 18.3615L12.7484 12.7484H14.6193C14.67 12.7552 14.7216 12.7502 14.7701 12.7338C14.8186 12.7174 14.8626 12.69 14.8988 12.6538C14.935 12.6176 14.9624 12.5735 14.9788 12.5251C14.9952 12.4766 15.0002 12.4249 14.9935 12.3742V10.129C15.0002 10.0782 14.9952 10.0266 14.9788 9.97813C14.9624 9.92964 14.935 9.88558 14.8988 9.84938C14.8626 9.81319 14.8186 9.78582 14.7701 9.76941C14.7216 9.753 14.67 9.74799 14.6193 9.75477H12.7461L12.7484 8.63216C12.821 8.15392 12.821 8.23176 13.2647 8.25795H14.6036C14.7076 8.23475 14.8183 8.24747 14.8962 8.17189C14.974 8.0963 15.0189 7.99302 14.9927 7.88375V5.63852C14.9996 5.58782 14.9947 5.53621 14.9784 5.48771C14.9621 5.43921 14.9348 5.39514 14.8987 5.35892C14.8625 5.3227 14.8185 5.29532 14.77 5.27891C14.7216 5.2625 14.67 5.25751 14.6193 5.26431ZM14.2189 7.46763L13.2804 7.43171C12.1182 7.43171 12.021 8.06262 12.021 8.70849L12.018 10.1275C12.0179 10.18 12.0281 10.2321 12.0482 10.2806C12.0682 10.3292 12.0976 10.3734 12.1347 10.4106C12.1719 10.4477 12.216 10.4773 12.2645 10.4974C12.313 10.5175 12.365 10.5279 12.4176 10.5279H14.2451V11.9738H12.4191C12.313 11.9738 12.2113 12.0159 12.1362 12.0908C12.0612 12.1657 12.0189 12.2674 12.0187 12.3735L12.018 17.9873H10.5033V12.3742C10.5033 12.1534 10.3529 11.9746 10.1313 11.9746H9.00655V10.5286H10.1313C10.1838 10.5287 10.2359 10.5184 10.2844 10.4984C10.3329 10.4784 10.377 10.449 10.4142 10.4119C10.4891 10.3363 10.5025 10.2345 10.5025 10.1282V8.5154C10.5025 6.83747 10.8415 6.03817 12.6219 6.03817H14.2181L14.2189 7.46763Z" fill="black"/>
</svg>
