<svg width="24" height="24" viewBox="0 0 24 24" fill="none" xmlns="http://www.w3.org/2000/svg">
<path d="M14.6307 8.97044C14.1232 8.97044 13.7475 9.09842 13.4534 9.26007C13.4063 9.09243 13.2513 8.96969 13.0687 9.00636H10.8355C10.6147 8.96969 10.4358 9.14856 10.5039 9.38057V17.6131C10.4358 17.8226 10.6147 18.0022 10.8355 17.9873H13.0687C13.2895 18.0022 13.4684 17.8226 13.4684 17.6018L13.4676 12.6264C13.4669 12.6242 13.4587 12.3862 13.6091 12.2223C13.7296 12.0921 13.9369 12.0254 14.2235 12.0254C14.701 12.0254 14.9136 12.2208 14.9929 12.6579V17.6018C14.9143 17.8226 15.0932 18.0022 15.314 17.9873H17.6677C17.8885 18.0022 18.0674 17.8226 17.988 17.6018V12.4917C18.0666 9.89323 16.2158 8.97044 14.6307 8.97044ZM17.2673 17.2389H15.7136V12.6579C15.7136 11.774 15.1426 11.2261 14.2243 11.2261C13.7049 11.2261 13.3007 11.3788 13.0223 11.6797C12.6354 12.0988 12.6653 12.6302 12.7484 12.7484V17.2389H11.2351V9.76974H12.6691V10.0212C12.6685 10.0961 12.6891 10.1697 12.7284 10.2334C12.7677 10.2972 12.8243 10.3485 12.8915 10.3816C12.9587 10.4147 13.0339 10.4281 13.1084 10.4203C13.1829 10.4126 13.2537 10.384 13.3127 10.3378L13.4175 10.257C13.7206 10.0182 14.0342 9.77049 14.6314 9.77049C15.2496 9.77049 17.2681 9.96732 17.2681 12.4925L17.2673 17.2389Z" fill="black"/>
<path d="M8.25795 5.23887C7.41824 5.23887 6.73569 5.92142 6.73569 6.76113C6.73569 7.60085 7.41824 8.2834 8.25795 8.2834C9.09767 8.2834 9.78022 7.60085 9.78022 6.76113C9.78022 5.92142 9.09767 5.23887 8.25795 5.23887ZM8.25795 7.4841C7.8598 7.4841 7.53499 7.15929 7.53499 6.76113C7.53499 6.36298 7.8598 6.03817 8.25795 6.03817C8.65611 6.03817 8.98092 6.36298 8.98092 6.76113C8.98092 7.15929 8.65611 7.4841 8.25795 7.4841Z" fill="black"/>
<path d="M9.32668 8.96969H7.1054C6.88462 8.96969 6.70575 9.14856 6.76113 9.38057V17.6131C6.70575 17.8226 6.88462 18.0022 7.1054 17.9873H9.32668C9.54746 18.0022 9.72633 17.8226 9.72633 17.6018V9.36934C9.72633 9.26335 9.68423 9.16169 9.60928 9.08674C9.53433 9.0118 9.43268 8.96969 9.32668 8.96969ZM9.00636 17.2389H7.50505V9.76974H9.00636V17.2389Z" fill="black"/>
<path d="M12 0C5.38256 0 0 5.38256 0 12C0 18.6174 5.38256 24 12 24C18.6174 24 24 18.6174 24 12C24 5.38256 18.6174 0 12 0ZM12 23.2007C5.82412 23.2007 0.799302 18.1759 0.799302 12C0.799302 5.82412 5.82412 0.799302 12 0.799302C18.1759 0.799302 23.2007 5.82412 23.2007 12C23.2007 18.1759 18.1759 23.2007 12 23.2007Z" fill="black"/>
</svg>
