<svg width="24" height="24" viewBox="0 0 24 24" fill="none" xmlns="http://www.w3.org/2000/svg">
<path d="M12 0C5.38372 0 0 5.38256 0 12C0 18.6174 5.38372 24 12 24C18.6163 24 24 18.6174 24 12C24 5.38256 18.6163 0 12 0ZM12 23.2007C5.82451 23.2007 0.800748 18.1759 0.800748 12C0.800748 5.82412 5.82451 0.799302 12 0.799302C18.1755 0.799302 23.1993 5.82412 23.1993 12C23.1993 18.1759 18.1755 23.2007 12 23.2007Z" fill="black"/>
<path d="M18.5811 8.29238C18.6641 8.13871 18.7325 7.9776 18.7854 7.81115C18.8099 7.73394 18.8104 7.65112 18.7868 7.57363C18.7633 7.49613 18.7168 7.42761 18.6534 7.3771C18.5901 7.32659 18.513 7.29647 18.4322 7.29072C18.3514 7.28497 18.2708 7.30386 18.2009 7.34489C17.8175 7.57271 17.4024 7.74245 16.9691 7.84857C16.4432 7.37391 15.7602 7.11077 15.0518 7.10989C14.667 7.11019 14.2861 7.1882 13.9321 7.33925C13.5781 7.4903 13.2583 7.71128 12.9917 7.98894C12.7252 8.2666 12.5175 8.59523 12.381 8.95511C12.2445 9.315 12.1822 9.69874 12.1976 10.0833C10.5145 9.87143 8.97761 9.01972 7.90571 7.70488C7.86464 7.65506 7.81215 7.6159 7.75271 7.59071C7.69327 7.56553 7.62862 7.55506 7.56427 7.5602C7.49992 7.56535 7.43776 7.58595 7.38307 7.62025C7.32838 7.65456 7.28278 7.70156 7.25014 7.75727C7.0047 8.17857 6.87129 8.65573 6.86264 9.14325C6.85399 9.63076 6.9704 10.1124 7.20075 10.5421C7.14425 10.5516 7.08998 10.5714 7.0406 10.6005C6.98009 10.6391 6.93027 10.6923 6.89574 10.7552C6.86122 10.8181 6.84309 10.8887 6.84303 10.9605C6.84303 11.8099 7.22095 12.5897 7.83012 13.1196L7.80393 13.1458C7.75794 13.1978 7.7263 13.261 7.71213 13.3289C7.69795 13.3969 7.70174 13.4674 7.72311 13.5335C7.85013 13.9298 8.06223 14.2935 8.34455 14.5993C8.62687 14.905 8.9726 15.1454 9.35753 15.3035C8.56695 15.6892 7.68221 15.8396 6.80861 15.7368C6.71881 15.7277 6.62851 15.7486 6.55186 15.7962C6.4752 15.8439 6.41653 15.9157 6.38503 16.0002C6.35478 16.0855 6.35421 16.1784 6.38342 16.264C6.41263 16.3496 6.46989 16.4228 6.54593 16.4717C7.73359 17.234 9.11525 17.639 10.5265 17.6385C15.1514 17.6385 17.9158 13.8815 17.9158 10.2495L17.9151 10.1267C18.3633 9.77678 18.7526 9.35736 19.0683 8.88437C19.1161 8.81287 19.1396 8.72787 19.1353 8.64196C19.1311 8.55605 19.0992 8.4738 19.0446 8.40739C18.9899 8.34097 18.9153 8.29393 18.8319 8.27321C18.7484 8.2525 18.6605 8.25922 18.5811 8.29238ZM17.2752 9.60584C17.2209 9.64489 17.1772 9.69693 17.1482 9.7572C17.1192 9.81746 17.1057 9.88404 17.1091 9.95085C17.1136 10.0496 17.1158 10.1499 17.1158 10.2487C17.1158 13.4878 14.6514 16.8385 10.5272 16.8385C9.79166 16.8388 9.06128 16.7153 8.3667 16.4732C9.19857 16.3138 9.98004 15.9571 10.6455 15.433C10.7102 15.3819 10.7577 15.312 10.7812 15.233C10.8048 15.1539 10.8034 15.0695 10.7772 14.9913C10.751 14.9131 10.7013 14.8449 10.6348 14.796C10.5684 14.7471 10.4885 14.72 10.406 14.7182C10.0833 14.7121 9.7666 14.6301 9.4814 14.4791C9.1962 14.328 8.95048 14.112 8.76408 13.8486C8.95341 13.8358 9.13901 13.8044 9.31936 13.7558C9.40665 13.7324 9.48345 13.6801 9.53722 13.6075C9.59099 13.5349 9.61856 13.4462 9.61543 13.3559C9.6123 13.2656 9.57867 13.179 9.52 13.1102C9.46134 13.0415 9.38112 12.9947 9.29242 12.9774C8.92799 12.9033 8.59056 12.7315 8.31625 12.4803C8.04193 12.2292 7.84104 11.9082 7.73508 11.5517C7.93414 11.6018 8.13845 11.631 8.34275 11.6378C8.51862 11.637 8.68176 11.5293 8.73639 11.3601C8.79102 11.191 8.72666 11.0046 8.57774 10.9058C8.22561 10.6712 7.95449 10.3336 7.80139 9.93912C7.6483 9.54464 7.6207 9.11251 7.72236 8.70176C9.02229 10.0357 10.7776 10.83 12.6376 10.926C12.7693 10.9268 12.8846 10.8796 12.9646 10.7831C13.0447 10.6865 13.0754 10.5586 13.047 10.4358C12.9446 9.99501 12.9904 9.53275 13.1772 9.12058C13.364 8.70841 13.6815 8.3693 14.0805 8.15575C14.4794 7.9422 14.9376 7.8661 15.3842 7.93923C15.8308 8.01236 16.2408 8.23065 16.5508 8.56031C16.5973 8.60989 16.6556 8.64682 16.7202 8.66764C16.7849 8.68846 16.8538 8.69247 16.9205 8.67931C17.044 8.65461 17.1659 8.62617 17.2864 8.59324C17.2321 8.6339 17.1757 8.67163 17.1173 8.70625C17.0397 8.75379 16.9806 8.82635 16.9498 8.91197C16.9189 8.9976 16.9182 9.09118 16.9476 9.17729C16.9771 9.2634 17.035 9.33691 17.1118 9.38569C17.1886 9.43448 17.2798 9.45564 17.3703 9.44568L17.5065 9.42846C17.4315 9.49025 17.3543 9.54941 17.2752 9.60584Z" fill="black"/>
</svg>
